<svg xmlns="http://www.w3.org/2000/svg" viewBox="0 0 1400 620" role="img" aria-labelledby="t d"><title id="t">CRYO original programming language symbols</title><desc id="d">Custom vector glyphs for Python, TypeScript, JavaScript, HTML, CSS, SQL, YAML, JSON, Shell and Markdown. These are original presentation symbols, not official logos.</desc><rect width="1400" height="620" rx="28" fill="#060912"/><rect x="24" y="24" width="1352" height="572" rx="22" fill="#0b1120" stroke="#283953"/><text x="56" y="74" fill="#9fb4d0" font-family="ui-monospace,monospace" font-size="15" letter-spacing="3">CRYO // ORIGINAL VECTOR LANGUAGE SYMBOLS</text><text x="56" y="116" fill="#fff" font-family="system-ui,sans-serif" font-size="32" font-weight="800">Language identity atlas</text><text x="56" y="145" fill="#8fa3bd" font-family="system-ui,sans-serif" font-size="15">Custom symbols for portfolio presentation — not official trademarks or logos.</text>
<g font-family="ui-monospace,monospace" font-weight="800" text-anchor="middle"><g transform="translate(56 185)"><rect width="238" height="148" rx="18" fill="#101a2b" stroke="#355071"/><circle cx="119" cy="65" r="40" fill="#16243a" stroke="#7dd3fc" stroke-width="2"/><text x="119" y="76" fill="#7dd3fc" font-size="34">Py</text><text x="119" y="122" fill="#fff" font-size="17">PYTHON</text></g><g transform="translate(316 185)"><rect width="238" height="148" rx="18" fill="#101a2b" stroke="#355071"/><circle cx="119" cy="65" r="40" fill="#16243a" stroke="#a78bfa" stroke-width="2"/><text x="119" y="75" fill="#a78bfa" font-size="25">TS</text><path d="M92 88h54" stroke="#a78bfa" stroke-width="3"/><text x="119" y="122" fill="#fff" font-size="17">TYPESCRIPT</text></g><g transform="translate(576 185)"><rect width="238" height="148" rx="18" fill="#101a2b" stroke="#355071"/><circle cx="119" cy="65" r="40" fill="#16243a" stroke="#fbbf24" stroke-width="2"/><text x="119" y="76" fill="#fbbf24" font-size="32">JS</text><text x="119" y="122" fill="#fff" font-size="17">JAVASCRIPT</text></g><g transform="translate(836 185)"><rect width="238" height="148" rx="18" fill="#101a2b" stroke="#355071"/><circle cx="119" cy="65" r="40" fill="#16243a" stroke="#60a5fa"/><text x="119" y="76" fill="#60a5fa" font-size="29">&lt;/&gt;</text><text x="119" y="122" fill="#fff" font-size="17">HTML</text></g><g transform="translate(1096 185)"><rect width="238" height="148" rx="18" fill="#101a2b" stroke="#355071"/><circle cx="119" cy="65" r="40" fill="#16243a" stroke="#38bdf8"/><text x="119" y="76" fill="#38bdf8" font-size="25">#id</text><text x="119" y="122" fill="#fff" font-size="17">CSS</text></g>
<g transform="translate(186 360)"><rect width="238" height="148" rx="18" fill="#101a2b" stroke="#355071"/><circle cx="119" cy="65" r="40" fill="#16243a" stroke="#34d399"/><text x="119" y="76" fill="#34d399" font-size="24">SQL</text><text x="119" y="122" fill="#fff" font-size="17">DATABASE</text></g><g transform="translate(446 360)"><rect width="238" height="148" rx="18" fill="#101a2b" stroke="#355071"/><circle cx="119" cy="65" r="40" fill="#16243a" stroke="#f472b6"/><text x="119" y="76" fill="#f472b6" font-size="27">YAML</text><text x="119" y="122" fill="#fff" font-size="17">CONFIG</text></g><g transform="translate(706 360)"><rect width="238" height="148" rx="18" fill="#101a2b" stroke="#355071"/><circle cx="119" cy="65" r="40" fill="#16243a" stroke="#f59e0b"/><text x="119" y="76" fill="#f59e0b" font-size="29">{ }</text><text x="119" y="122" fill="#fff" font-size="17">JSON</text></g><g transform="translate(966 360)"><rect width="238" height="148" rx="18" fill="#101a2b" stroke="#355071"/><circle cx="119" cy="65" r="40" fill="#16243a" stroke="#a3e635"/><text x="119" y="76" fill="#a3e635" font-size="26">$ _</text><text x="119" y="122" fill="#fff" font-size="17">SHELL</text></g></g><text x="56" y="562" fill="#7186a1" font-family="system-ui,sans-serif" font-size="13">Verified core in profile evidence: Python · TypeScript · JavaScript. Other symbols are contextual presentation vocabulary.</text></svg>